<?xml version="1.0" encoding="UTF-8"?>
<svg id="Layer_2" data-name="Layer 2" xmlns="http://www.w3.org/2000/svg" xmlns:xlink="http://www.w3.org/1999/xlink" viewBox="0 0 487.33 244.26">
  <defs>
    <style>
      .cls-1 {
        fill: url(#linear-gradient-15);
      }

      .cls-2 {
        fill: url(#linear-gradient-13);
      }

      .cls-3 {
        fill: url(#linear-gradient-28);
      }

      .cls-4 {
        fill: url(#linear-gradient-42);
      }

      .cls-5 {
        fill: url(#linear-gradient-2);
      }

      .cls-6 {
        fill: url(#linear-gradient-43);
      }

      .cls-7 {
        fill: url(#linear-gradient-25);
      }

      .cls-8 {
        fill: url(#linear-gradient-10);
      }

      .cls-9 {
        fill: url(#linear-gradient-12);
      }

      .cls-10 {
        fill: url(#linear-gradient-40);
      }

      .cls-11 {
        fill: url(#linear-gradient-27);
      }

      .cls-12 {
        fill: url(#linear-gradient-37);
      }

      .cls-13 {
        fill: url(#linear-gradient-39);
      }

      .cls-14 {
        fill: url(#linear-gradient-26);
      }

      .cls-15 {
        fill: url(#linear-gradient-4);
      }

      .cls-16 {
        fill: url(#linear-gradient-35);
      }

      .cls-17 {
        fill: url(#linear-gradient-30);
      }

      .cls-18 {
        fill: url(#linear-gradient-44);
      }

      .cls-19 {
        fill: url(#linear-gradient-3);
      }

      .cls-20 {
        fill: url(#linear-gradient-34);
      }

      .cls-21 {
        fill: url(#linear-gradient-5);
      }

      .cls-22 {
        fill: url(#linear-gradient-38);
      }

      .cls-23 {
        fill: url(#linear-gradient-22);
      }

      .cls-24 {
        fill: url(#linear-gradient-24);
      }

      .cls-25 {
        fill: url(#linear-gradient-33);
      }

      .cls-26 {
        fill: url(#linear-gradient-8);
      }

      .cls-27 {
        fill: url(#linear-gradient-14);
      }

      .cls-28 {
        fill: url(#linear-gradient-29);
      }

      .cls-29 {
        fill: url(#linear-gradient-20);
      }

      .cls-30 {
        fill: url(#linear-gradient-17);
      }

      .cls-31 {
        fill: url(#linear-gradient-7);
      }

      .cls-32 {
        fill: url(#linear-gradient-9);
      }

      .cls-33 {
        fill: url(#linear-gradient-11);
      }

      .cls-34 {
        fill: url(#linear-gradient-19);
      }

      .cls-35 {
        fill: url(#linear-gradient-6);
      }

      .cls-36 {
        fill: url(#linear-gradient-36);
      }

      .cls-37 {
        fill: url(#linear-gradient-21);
      }

      .cls-38 {
        fill: url(#linear-gradient-45);
      }

      .cls-39 {
        fill: url(#linear-gradient-32);
      }

      .cls-40 {
        fill: url(#linear-gradient-41);
      }

      .cls-41 {
        fill: url(#linear-gradient-16);
      }

      .cls-42 {
        fill: url(#linear-gradient);
      }

      .cls-43 {
        fill: url(#linear-gradient-23);
      }

      .cls-44 {
        fill: url(#linear-gradient-31);
      }

      .cls-45 {
        fill: url(#linear-gradient-18);
      }
    </style>
    <linearGradient id="linear-gradient" x1="187.56" y1="179.97" x2="195.86" y2="179.97" gradientUnits="userSpaceOnUse">
      <stop offset="0" stop-color="#8b6629"/>
      <stop offset="0" stop-color="#8b6629"/>
      <stop offset=".17" stop-color="#c6b98e"/>
      <stop offset=".28" stop-color="#dcaf3d"/>
      <stop offset=".36" stop-color="#ba8b2d"/>
      <stop offset=".53" stop-color="#cbb777"/>
      <stop offset=".77" stop-color="#aa7e34"/>
      <stop offset="1" stop-color="#cfb56c"/>
    </linearGradient>
    <linearGradient id="linear-gradient-2" x1="196.68" y1="179.89" x2="203.17" y2="179.89" xlink:href="#linear-gradient"/>
    <linearGradient id="linear-gradient-3" x1="204.63" y1="181.23" x2="211.54" y2="181.23" xlink:href="#linear-gradient"/>
    <linearGradient id="linear-gradient-4" x1="216.63" y1="179.89" x2="224.85" y2="179.89" xlink:href="#linear-gradient"/>
    <linearGradient id="linear-gradient-5" x1="226.86" y1="179.89" x2="228.68" y2="179.89" xlink:href="#linear-gradient"/>
    <linearGradient id="linear-gradient-6" x1="229.81" y1="180" x2="234.72" y2="180" xlink:href="#linear-gradient"/>
    <linearGradient id="linear-gradient-7" x1="235.39" y1="181.24" x2="237.21" y2="181.24" xlink:href="#linear-gradient"/>
    <linearGradient id="linear-gradient-8" x1="235.39" y1="175.8" x2="237.21" y2="175.8" xlink:href="#linear-gradient"/>
    <linearGradient id="linear-gradient-9" x1="238.98" y1="181.24" x2="249.39" y2="181.24" xlink:href="#linear-gradient"/>
    <linearGradient id="linear-gradient-10" x1="250.77" y1="181.23" x2="257.75" y2="181.23" xlink:href="#linear-gradient"/>
    <linearGradient id="linear-gradient-11" x1="258.18" y1="180" x2="263.09" y2="180" xlink:href="#linear-gradient"/>
    <linearGradient id="linear-gradient-12" x1="263.42" y1="181.23" x2="270.34" y2="181.23" xlink:href="#linear-gradient"/>
    <linearGradient id="linear-gradient-13" x1="275.07" y1="179.89" x2="282.83" y2="179.89" xlink:href="#linear-gradient"/>
    <linearGradient id="linear-gradient-14" x1="283.99" y1="181.23" x2="290.97" y2="181.23" xlink:href="#linear-gradient"/>
    <linearGradient id="linear-gradient-15" x1="292.44" y1="181.24" x2="298.92" y2="181.24" xlink:href="#linear-gradient"/>
    <linearGradient id="linear-gradient-16" x1="300.32" y1="179.89" x2="307.44" y2="179.89" xlink:href="#linear-gradient"/>
    <linearGradient id="linear-gradient-17" x1="312.1" y1="179.89" x2="321.17" y2="179.89" xlink:href="#linear-gradient"/>
    <linearGradient id="linear-gradient-18" x1="322.48" y1="181.24" x2="327.48" y2="181.24" xlink:href="#linear-gradient"/>
    <linearGradient id="linear-gradient-19" x1="327.89" y1="180" x2="332.8" y2="180" xlink:href="#linear-gradient"/>
    <linearGradient id="linear-gradient-20" x1="337.01" y1="179.89" x2="344.54" y2="179.89" xlink:href="#linear-gradient"/>
    <linearGradient id="linear-gradient-21" x1="345.41" y1="181.24" x2="351.79" y2="181.24" xlink:href="#linear-gradient"/>
    <linearGradient id="linear-gradient-22" x1="353.05" y1="182.59" x2="360.16" y2="182.59" xlink:href="#linear-gradient"/>
    <linearGradient id="linear-gradient-23" x1="361.28" y1="181.23" x2="368.2" y2="181.23" xlink:href="#linear-gradient"/>
    <linearGradient id="linear-gradient-24" x1="369.72" y1="181.24" x2="374.71" y2="181.24" xlink:href="#linear-gradient"/>
    <linearGradient id="linear-gradient-25" x1="375.71" y1="175.8" x2="377.53" y2="175.8" xlink:href="#linear-gradient"/>
    <linearGradient id="linear-gradient-26" x1="375.71" y1="181.24" x2="377.53" y2="181.24" xlink:href="#linear-gradient"/>
    <linearGradient id="linear-gradient-27" x1="379.07" y1="181.23" x2="385.98" y2="181.23" xlink:href="#linear-gradient"/>
    <linearGradient id="linear-gradient-28" x1="387.46" y1="181.24" x2="393.95" y2="181.24" xlink:href="#linear-gradient"/>
    <linearGradient id="linear-gradient-29" x1="395.41" y1="181.22" x2="402.28" y2="181.22" xlink:href="#linear-gradient"/>
    <linearGradient id="linear-gradient-30" x1="403.53" y1="181.23" x2="410.44" y2="181.23" xlink:href="#linear-gradient"/>
    <linearGradient id="linear-gradient-31" x1="0" y1="104.95" x2="45.07" y2="104.95" xlink:href="#linear-gradient"/>
    <linearGradient id="linear-gradient-32" x1="53.79" y1="126.65" x2="102.19" y2="126.65" xlink:href="#linear-gradient"/>
    <linearGradient id="linear-gradient-33" x1="107.23" y1="143.22" x2="156.85" y2="143.22" xlink:href="#linear-gradient"/>
    <linearGradient id="linear-gradient-34" x1="80.64" y1="174.58" x2="207.69" y2="174.58" xlink:href="#linear-gradient"/>
    <linearGradient id="linear-gradient-35" x1="211.61" y1="126.71" x2="247.62" y2="126.71" xlink:href="#linear-gradient"/>
    <linearGradient id="linear-gradient-36" x1="251.98" y1="126.65" x2="300.38" y2="126.65" xlink:href="#linear-gradient"/>
    <linearGradient id="linear-gradient-37" x1="281.02" y1="74.16" x2="350.87" y2="74.16" xlink:href="#linear-gradient"/>
    <linearGradient id="linear-gradient-38" x1="358.88" y1="126.65" x2="407.28" y2="126.65" xlink:href="#linear-gradient"/>
    <linearGradient id="linear-gradient-39" x1="415.41" y1="88.6" x2="469.63" y2="88.6" xlink:href="#linear-gradient"/>
    <linearGradient id="linear-gradient-40" x1="464.57" y1="126.71" x2="487.33" y2="126.71" xlink:href="#linear-gradient"/>
    <linearGradient id="linear-gradient-41" x1="463.62" y1="96.64" x2="477.32" y2="96.64" xlink:href="#linear-gradient"/>
    <linearGradient id="linear-gradient-42" x1="155.02" y1="172.42" x2="156.03" y2="172.42" xlink:href="#linear-gradient"/>
    <linearGradient id="linear-gradient-43" x1="187.72" y1="164.87" x2="354.62" y2="164.87" xlink:href="#linear-gradient"/>
    <linearGradient id="linear-gradient-44" x1="356.22" y1="164.73" x2="380.74" y2="164.73" xlink:href="#linear-gradient"/>
    <linearGradient id="linear-gradient-45" x1="382" y1="164.73" x2="410.28" y2="164.73" xlink:href="#linear-gradient"/>
  </defs>
  <g id="Layer_1-2" data-name="Layer 1">
    <g>
      <path class="cls-42" d="M194.85,175h-6.29c-.32,0-.57.07-.74.22-.17.15-.26.35-.26.6s.08.44.25.59.42.22.75.22h2.16v7.1c0,.4.09.71.28.91.18.2.42.3.72.3s.52-.1.71-.3c.18-.2.27-.5.27-.91v-7.1h2.16c.34,0,.59-.07.76-.22.17-.15.25-.35.25-.59s-.08-.44-.25-.59c-.17-.15-.42-.23-.76-.23Z"/>
      <path class="cls-5" d="M202.84,178.69c-.2-.37-.49-.66-.84-.85-.36-.2-.77-.29-1.23-.29-.31,0-.59.04-.86.12s-.51.19-.73.35-.45.37-.68.63v-2.7c0-.36-.08-.64-.24-.83-.16-.19-.39-.28-.68-.28s-.51.09-.66.28c-.16.18-.24.46-.24.83v7.89c0,.74.3,1.11.9,1.11.29,0,.51-.09.68-.28.16-.19.24-.46.24-.82v-2.41c0-.69.05-1.18.15-1.45.13-.32.32-.57.58-.76.26-.18.55-.28.88-.28.48,0,.81.16.99.47.17.31.26.76.26,1.34v3.07c0,.74.3,1.11.9,1.11.28,0,.5-.09.66-.28.17-.19.25-.46.25-.83v-3.49c0-.35-.02-.66-.07-.93-.04-.27-.13-.51-.26-.73Z"/>
      <path class="cls-19" d="M211.15,181.48c.26-.14.39-.43.39-.89,0-.49-.13-.98-.38-1.45-.25-.48-.63-.86-1.14-1.16-.51-.3-1.12-.45-1.83-.45-.55,0-1.04.09-1.49.26-.45.18-.83.43-1.13.76-.31.33-.54.72-.7,1.18-.16.46-.24.96-.24,1.5,0,1.14.32,2.05.97,2.71s1.56,1,2.73,1c.51,0,.96-.07,1.36-.2.39-.13.72-.3.98-.5.26-.2.45-.41.58-.63s.19-.41.19-.58c0-.19-.06-.33-.17-.43-.12-.1-.27-.15-.45-.15-.17,0-.31.04-.4.12-.23.21-.41.38-.55.51-.14.12-.3.24-.47.35-.17.11-.34.19-.52.24-.18.05-.38.08-.6.08-.32,0-.62-.08-.89-.24-.27-.16-.48-.4-.65-.71-.16-.32-.25-.68-.25-1.09h3.56c.48,0,.84-.07,1.11-.2ZM206.49,180.65c.06-.61.24-1.08.53-1.39.29-.31.66-.47,1.12-.47.48,0,.86.15,1.15.46.29.31.46.77.5,1.4h-3.3Z"/>
      <path class="cls-15" d="M223.85,174.83c-.3,0-.54.1-.71.3-.18.2-.27.5-.27.9v4.84c0,.84-.16,1.46-.48,1.87-.32.41-.87.62-1.64.62-.56,0-1-.1-1.31-.3-.31-.2-.53-.49-.65-.85-.12-.37-.18-.82-.18-1.37v-4.8c0-.4-.09-.7-.27-.9-.18-.2-.42-.3-.73-.3s-.53.1-.71.3c-.18.2-.27.5-.27.9v4.7c0,.74.08,1.37.24,1.9.16.53.41.97.75,1.31.34.34.78.59,1.33.75.54.16,1.19.24,1.94.24.63,0,1.18-.08,1.65-.23.47-.15.88-.39,1.24-.72.41-.39.69-.84.84-1.35s.22-1.15.22-1.91v-4.7c0-.4-.09-.71-.28-.9-.18-.2-.43-.3-.72-.3Z"/>
      <path class="cls-21" d="M227.76,174.83c-.28,0-.49.09-.66.28-.16.19-.24.46-.24.83v7.89c0,.36.08.63.25.82.17.19.38.29.65.29s.49-.09.66-.28c.17-.18.26-.46.26-.83v-7.89c0-.37-.08-.65-.25-.83s-.39-.28-.67-.28Z"/>
      <path class="cls-35" d="M234.15,183.42c-.1,0-.24.02-.43.06s-.33.06-.43.06c-.2,0-.34-.05-.42-.14-.09-.1-.14-.22-.16-.37-.02-.15-.03-.37-.03-.66v-3.35h.34c.36,0,.64-.05.83-.15.19-.1.29-.27.29-.51,0-.19-.07-.35-.2-.47-.14-.12-.33-.18-.59-.18h-.67v-1.24c0-.31-.02-.54-.05-.71s-.11-.31-.24-.42c-.19-.17-.4-.26-.63-.26-.16,0-.31.04-.45.12-.13.08-.24.18-.31.3-.07.12-.11.26-.13.43s-.02.4-.02.69v1.09h-.2c-.28,0-.49.06-.63.18-.14.12-.22.28-.22.47s.07.35.21.47c.14.12.34.19.6.19h.24v3.49c0,.56.05,1.02.14,1.35.09.34.28.6.58.79.29.19.72.29,1.29.29.6,0,1.06-.08,1.38-.23.32-.16.48-.38.48-.67,0-.17-.06-.32-.18-.44-.12-.12-.25-.18-.4-.18Z"/>
      <path class="cls-31" d="M236.29,177.54c-.27,0-.48.09-.65.27-.17.18-.25.45-.25.81v5.2c0,.36.08.63.25.82.17.19.38.29.65.29s.49-.09.66-.28c.17-.19.26-.46.26-.83v-5.26c0-.32-.09-.58-.26-.76-.17-.18-.39-.27-.66-.27Z"/>
      <path class="cls-26" d="M236.31,174.91c-.24,0-.46.08-.64.25-.18.17-.28.38-.28.64,0,.28.09.5.27.66.18.16.4.23.65.23s.46-.08.63-.24.27-.38.27-.66-.09-.51-.27-.66c-.18-.15-.39-.23-.63-.23Z"/>
      <path class="cls-32" d="M248.35,177.85c-.36-.2-.79-.29-1.29-.29-.43,0-.82.09-1.17.27-.35.18-.68.46-.99.83-.21-.37-.48-.64-.81-.83-.33-.18-.72-.27-1.18-.27s-.84.09-1.2.27c-.36.18-.7.46-1.01.83v-.17c0-.29-.08-.52-.25-.69s-.37-.25-.62-.25-.47.09-.62.27c-.16.18-.24.44-.24.78v5.2c0,.38.09.66.26.86s.4.29.68.29.51-.1.68-.29c.17-.19.26-.48.26-.86v-2.46c0-.76.09-1.35.28-1.76.19-.41.58-.61,1.18-.61.3,0,.52.08.65.24.14.16.22.37.25.62s.05.61.05,1.07v2.9c0,.38.09.67.26.86.17.19.39.29.67.29s.51-.1.69-.29c.17-.19.26-.48.26-.86v-2.42c0-.78.07-1.32.2-1.63.12-.24.29-.43.5-.57.22-.14.44-.21.68-.21.3,0,.52.08.67.24.15.16.24.36.27.59.03.24.05.55.05.94v3.06c0,.38.09.66.26.86s.4.29.68.29.51-.1.69-.29c.17-.19.26-.48.26-.86v-3.55c0-.71-.08-1.22-.23-1.55-.18-.36-.45-.64-.81-.84Z"/>
      <path class="cls-8" d="M257.41,182.41c0-.36,0-.7,0-.99,0-.3,0-.66,0-1.09,0-.68-.09-1.22-.28-1.63-.19-.41-.51-.71-.97-.9-.46-.19-1.09-.28-1.89-.28-.72,0-1.31.1-1.79.29s-.83.44-1.06.75c-.23.3-.34.61-.34.93,0,.2.07.37.22.5.15.13.33.2.53.2.23,0,.37-.04.44-.12.07-.08.19-.25.35-.51s.37-.45.6-.58c.23-.13.58-.19,1.04-.19.54,0,.89.11,1.06.34.17.22.27.58.29,1.06-.38.11-.74.21-1.06.28-.33.08-.72.16-1.18.26-.46.09-.74.15-.86.18-.55.12-.98.36-1.3.71-.32.35-.47.78-.47,1.27,0,.37.1.71.29,1.03.19.32.46.57.82.75s.76.28,1.23.28c.51,0,.97-.09,1.38-.26.41-.17.84-.43,1.28-.77.2.33.4.59.58.76s.37.26.55.26c.22,0,.42-.08.6-.23.18-.15.26-.32.26-.51,0-.11-.06-.35-.17-.72s-.17-.73-.17-1.07ZM255.64,181.54c0,.63-.08,1.08-.25,1.36-.14.25-.37.45-.67.61s-.64.24-1,.24c-.34,0-.61-.1-.82-.29-.21-.19-.31-.43-.31-.7s.09-.47.27-.62c.18-.15.36-.25.56-.3.2-.05.55-.13,1.06-.24s.9-.21,1.16-.31v.26Z"/>
      <path class="cls-33" d="M262.52,183.42c-.1,0-.24.02-.43.06-.18.04-.33.06-.43.06-.2,0-.34-.05-.42-.14-.09-.1-.14-.22-.16-.37-.02-.15-.03-.37-.03-.66v-3.35h.34c.36,0,.64-.05.83-.15.19-.1.29-.27.29-.51,0-.19-.07-.35-.2-.47-.14-.12-.33-.18-.59-.18h-.67v-1.24c0-.31-.02-.54-.05-.71-.03-.17-.11-.31-.24-.42-.19-.17-.4-.26-.63-.26-.16,0-.31.04-.45.12-.13.08-.24.18-.31.3-.07.12-.11.26-.13.43-.02.17-.02.4-.02.69v1.09h-.2c-.28,0-.49.06-.63.18-.14.12-.22.28-.22.47s.07.35.21.47c.14.12.34.19.6.19h.24v3.49c0,.56.05,1.02.14,1.35.09.34.28.6.58.79.29.19.72.29,1.29.29.6,0,1.06-.08,1.38-.23.32-.16.48-.38.48-.67,0-.17-.06-.32-.18-.44s-.25-.18-.4-.18Z"/>
      <path class="cls-9" d="M269.94,181.48c.26-.14.39-.43.39-.89,0-.49-.13-.98-.38-1.45-.25-.48-.63-.86-1.14-1.16-.51-.3-1.12-.45-1.83-.45-.55,0-1.04.09-1.49.26-.45.18-.83.43-1.13.76-.31.33-.54.72-.7,1.18s-.24.96-.24,1.5c0,1.14.32,2.05.97,2.71s1.56,1,2.73,1c.51,0,.96-.07,1.36-.2.39-.13.72-.3.98-.5s.45-.41.58-.63.19-.41.19-.58c0-.19-.06-.33-.17-.43-.12-.1-.27-.15-.45-.15-.17,0-.31.04-.4.12-.23.21-.41.38-.55.51-.14.12-.3.24-.47.35-.17.11-.34.19-.52.24-.18.05-.38.08-.6.08-.32,0-.62-.08-.89-.24-.27-.16-.48-.4-.65-.71-.16-.32-.25-.68-.25-1.09h3.56c.48,0,.84-.07,1.11-.2ZM265.28,180.65c.06-.61.24-1.08.53-1.39.29-.31.66-.47,1.12-.47.48,0,.86.15,1.15.46.29.31.46.77.5,1.4h-3.3Z"/>
      <path class="cls-2" d="M281.83,179.75c-.31-.22-.69-.41-1.14-.57s-.95-.3-1.5-.43c-.44-.11-.76-.2-.95-.25-.19-.06-.38-.14-.57-.24s-.33-.22-.44-.37c-.11-.14-.16-.31-.16-.51,0-.32.16-.59.47-.81.31-.22.73-.34,1.24-.34.55,0,.95.1,1.2.31.25.21.46.49.64.86.14.26.27.44.38.56.12.11.29.17.52.17.25,0,.46-.09.62-.28.17-.19.25-.4.25-.64,0-.26-.07-.52-.2-.79-.13-.27-.34-.53-.63-.78s-.65-.44-1.09-.59c-.44-.15-.96-.22-1.56-.22-.75,0-1.4.11-1.96.34s-.98.55-1.27.96c-.29.42-.44.9-.44,1.43,0,.56.14,1.04.42,1.42s.65.68,1.13.9c.47.22,1.06.41,1.76.58.52.12.94.23,1.26.34.31.11.57.26.77.46.2.2.3.47.3.79,0,.41-.18.75-.55,1.02-.37.27-.84.41-1.43.41-.43,0-.77-.07-1.03-.2-.26-.14-.47-.31-.61-.52-.14-.21-.28-.47-.4-.78-.1-.26-.23-.46-.37-.59-.14-.13-.32-.2-.53-.2-.26,0-.47.09-.64.26-.17.17-.25.38-.25.62,0,.41.14.84.42,1.28.28.44.64.79,1.08,1.05.63.36,1.42.55,2.39.55.8,0,1.5-.13,2.09-.4.59-.27,1.03-.64,1.34-1.11.3-.47.46-1,.46-1.59,0-.49-.09-.91-.26-1.25s-.42-.62-.73-.84Z"/>
      <path class="cls-27" d="M290.63,182.41c0-.36,0-.7,0-.99s0-.66,0-1.09c0-.68-.09-1.22-.28-1.63-.19-.41-.51-.71-.97-.9-.46-.19-1.09-.28-1.89-.28-.72,0-1.31.1-1.79.29s-.83.44-1.06.75c-.23.3-.34.61-.34.93,0,.2.07.37.22.5.15.13.33.2.53.2.23,0,.37-.04.44-.12.07-.08.19-.25.35-.51s.37-.45.6-.58.58-.19,1.04-.19c.54,0,.89.11,1.06.34.17.22.27.58.29,1.06-.38.11-.74.21-1.06.28s-.72.16-1.18.26c-.46.09-.74.15-.86.18-.55.12-.98.36-1.3.71s-.47.78-.47,1.27c0,.37.1.71.29,1.03.19.32.46.57.82.75.35.18.76.28,1.23.28.51,0,.97-.09,1.38-.26.41-.17.84-.43,1.28-.77.2.33.4.59.58.76s.37.26.55.26c.22,0,.42-.08.6-.23.18-.15.26-.32.26-.51,0-.11-.06-.35-.17-.72s-.17-.73-.17-1.07ZM288.86,181.54c0,.63-.08,1.08-.25,1.36-.14.25-.37.45-.67.61s-.64.24-1,.24c-.34,0-.61-.1-.82-.29s-.31-.43-.31-.7.09-.47.27-.62c.18-.15.36-.25.56-.3.2-.05.55-.13,1.06-.24s.9-.21,1.16-.31v.26Z"/>
      <path class="cls-1" d="M298.64,178.74c-.19-.38-.47-.68-.85-.89-.38-.21-.81-.31-1.29-.31s-.93.1-1.31.3c-.38.2-.73.51-1.05.93v-.22c0-.22-.04-.4-.12-.55-.08-.15-.18-.26-.31-.34s-.27-.11-.43-.11c-.26,0-.47.09-.62.26-.15.17-.23.43-.23.78v5.26c0,.36.08.63.25.82.17.19.38.29.65.29s.49-.09.66-.28c.17-.18.26-.46.26-.83v-2.28c0-.74.04-1.25.13-1.52.12-.34.32-.6.59-.8s.56-.29.89-.29c.5,0,.83.16,1,.48s.25.78.25,1.38v3.03c0,.36.08.63.25.82.17.19.39.29.66.29s.48-.09.65-.28c.17-.19.25-.46.25-.83v-3.39c0-.4-.02-.73-.05-.99-.04-.26-.11-.5-.23-.72Z"/>
      <path class="cls-41" d="M306.58,174.83c-.28,0-.49.1-.64.29-.15.19-.22.47-.22.85v2.69c-.34-.37-.69-.65-1.05-.83-.36-.18-.8-.27-1.33-.27-.91,0-1.64.32-2.19.95-.56.64-.83,1.52-.83,2.66,0,.54.07,1.04.21,1.5.14.46.35.86.62,1.21.27.34.59.61.96.79s.77.28,1.21.28c.33,0,.63-.05.91-.14.28-.09.54-.22.77-.4s.48-.4.72-.68v.18c0,.33.08.59.24.77.16.18.37.27.62.27s.46-.09.62-.26c.16-.17.24-.43.24-.78v-8.02c0-.34-.07-.6-.22-.78s-.36-.26-.64-.26ZM305.38,182.51c-.16.34-.37.6-.63.77-.26.17-.56.25-.88.25s-.61-.09-.87-.26-.48-.44-.63-.78c-.15-.35-.23-.77-.23-1.26,0-.47.07-.88.22-1.23.14-.35.35-.62.61-.81.26-.19.56-.28.89-.28s.61.09.88.28.48.45.64.8c.16.35.24.77.24,1.25,0,.52-.08.95-.24,1.29Z"/>
      <path class="cls-30" d="M318.31,176.68c-.12-.32-.22-.57-.3-.76-.08-.19-.17-.37-.29-.53-.11-.16-.26-.3-.45-.4-.18-.1-.41-.16-.69-.16s-.5.05-.68.16c-.18.1-.33.24-.45.41-.11.17-.22.38-.32.64-.1.26-.19.47-.26.66l-2.5,6.34c-.1.25-.18.45-.22.59-.04.14-.07.28-.07.41,0,.23.1.44.29.62.19.18.41.27.66.27.29,0,.5-.09.63-.26.13-.17.28-.5.47-.99l.47-1.25h3.97l.47,1.23c.06.15.14.33.22.52.09.2.17.34.24.44.08.1.17.17.28.23s.24.08.4.08c.27,0,.49-.09.68-.28s.28-.4.28-.62-.1-.57-.3-1.05l-2.55-6.3ZM315.14,180.95l1.45-4.03,1.47,4.03h-2.92Z"/>
      <path class="cls-45" d="M326.94,177.83c-.36-.19-.73-.29-1.11-.29s-.69.1-.92.29c-.23.19-.45.47-.67.85-.01-.37-.09-.66-.22-.85-.13-.19-.35-.29-.65-.29-.59,0-.89.41-.89,1.23v5.06c0,.36.08.64.25.83.17.19.38.28.65.28s.49-.09.66-.28.26-.46.26-.83v-1.52c0-.55.02-1.01.05-1.39s.1-.71.19-.98.22-.48.39-.62c.17-.14.39-.21.65-.21.2,0,.42.04.68.12.26.08.42.12.48.12.18,0,.34-.07.5-.22.15-.14.23-.33.23-.55,0-.32-.18-.57-.54-.76Z"/>
      <path class="cls-34" d="M332.23,183.42c-.1,0-.24.02-.43.06-.18.04-.33.06-.43.06-.2,0-.34-.05-.42-.14-.09-.1-.14-.22-.16-.37-.02-.15-.03-.37-.03-.66v-3.35h.34c.36,0,.64-.05.83-.15.19-.1.29-.27.29-.51,0-.19-.07-.35-.2-.47-.14-.12-.33-.18-.59-.18h-.67v-1.24c0-.31-.02-.54-.05-.71-.03-.17-.11-.31-.24-.42-.19-.17-.4-.26-.63-.26-.16,0-.31.04-.45.12-.13.08-.24.18-.31.3-.07.12-.11.26-.13.43-.02.17-.02.4-.02.69v1.09h-.2c-.28,0-.49.06-.63.18-.14.12-.22.28-.22.47s.07.35.21.47c.14.12.34.19.6.19h.24v3.49c0,.56.05,1.02.14,1.35.09.34.28.6.58.79.29.19.72.29,1.29.29.6,0,1.06-.08,1.38-.23.32-.16.48-.38.48-.67,0-.17-.06-.32-.18-.44s-.25-.18-.4-.18Z"/>
      <path class="cls-29" d="M343.6,183.2h-4.61v-2.78h4.1c.31,0,.53-.07.68-.21s.22-.32.22-.54-.07-.4-.22-.54c-.15-.14-.37-.2-.68-.2h-4.1v-2.4h4.46c.32,0,.55-.07.7-.21.15-.14.23-.33.23-.56s-.08-.41-.23-.55c-.15-.14-.39-.21-.7-.21h-5.22c-.28,0-.51.04-.69.12-.18.08-.31.21-.4.39-.08.18-.13.41-.13.7v7.34c0,.43.09.74.28.93.19.19.5.29.93.29h5.38c.31,0,.55-.07.7-.22.16-.14.24-.33.24-.56s-.08-.43-.24-.58c-.16-.14-.39-.22-.7-.22Z"/>
      <path class="cls-37" d="M349.75,181.04l1.46-1.97c.13-.17.23-.32.3-.45s.1-.26.1-.4c0-.19-.08-.35-.24-.49-.16-.14-.36-.2-.6-.2-.21,0-.38.06-.52.17-.14.12-.31.31-.5.57l-1.15,1.61-1.18-1.61c-.19-.26-.35-.45-.49-.57s-.32-.18-.53-.18c-.24,0-.44.07-.59.21s-.23.3-.23.49c0,.24.13.52.38.85l1.46,1.97-1.65,2.36c-.25.36-.37.63-.37.82s.08.35.24.5c.16.14.36.22.59.22.21,0,.38-.06.52-.17.14-.12.3-.31.5-.58l1.35-1.94,1.32,1.94c.19.26.35.45.5.57s.32.18.53.18c.24,0,.43-.07.59-.21.16-.14.24-.3.24-.49s-.13-.46-.39-.83l-1.65-2.36Z"/>
      <path class="cls-23" d="M358.64,177.99c-.47-.29-.99-.43-1.55-.43-.47,0-.88.1-1.25.3-.37.2-.72.51-1.07.93v-.22c0-.33-.08-.58-.24-.76-.16-.18-.37-.26-.63-.26s-.47.09-.62.26c-.15.17-.23.43-.23.78v7.85c0,.4.06.7.17.9.11.21.34.31.68.31.58,0,.87-.4.87-1.2v-2.73c.32.4.66.71,1.01.92.35.21.79.31,1.31.31.43,0,.83-.09,1.21-.26.38-.17.7-.42.98-.73.28-.32.49-.71.65-1.18.16-.47.24-.98.24-1.54,0-.76-.14-1.42-.41-1.97-.27-.56-.65-.98-1.12-1.27ZM358.1,182.48c-.16.35-.36.61-.62.79s-.54.26-.84.26c-.51,0-.93-.2-1.27-.6s-.51-.97-.51-1.69c0-.77.17-1.35.52-1.75.34-.4.77-.59,1.27-.59.32,0,.6.09.86.28s.46.45.61.79c.15.34.22.76.22,1.24s-.08.92-.23,1.27Z"/>
      <path class="cls-43" d="M367.8,181.48c.26-.14.39-.43.39-.89,0-.49-.13-.98-.38-1.45-.25-.48-.63-.86-1.14-1.16-.51-.3-1.12-.45-1.83-.45-.55,0-1.04.09-1.49.26-.45.18-.83.43-1.13.76-.31.33-.54.72-.7,1.18-.16.46-.24.96-.24,1.5,0,1.14.32,2.05.97,2.71s1.56,1,2.73,1c.51,0,.96-.07,1.36-.2.39-.13.72-.3.98-.5s.45-.41.58-.63c.13-.22.19-.41.19-.58,0-.19-.06-.33-.17-.43-.12-.1-.27-.15-.45-.15-.17,0-.31.04-.4.12-.23.21-.41.38-.55.51-.14.12-.3.24-.47.35-.17.11-.34.19-.52.24-.18.05-.38.08-.6.08-.32,0-.62-.08-.89-.24-.27-.16-.48-.4-.65-.71-.16-.32-.25-.68-.25-1.09h3.56c.48,0,.84-.07,1.11-.2ZM363.14,180.65c.06-.61.24-1.08.53-1.39.29-.31.66-.47,1.12-.47.48,0,.86.15,1.15.46.29.31.46.77.5,1.4h-3.3Z"/>
      <path class="cls-24" d="M374.17,177.83c-.36-.19-.73-.29-1.11-.29s-.69.1-.92.29c-.23.19-.45.47-.67.85-.01-.37-.09-.66-.22-.85-.13-.19-.35-.29-.65-.29-.59,0-.89.41-.89,1.23v5.06c0,.36.08.64.25.83.17.19.38.28.65.28s.49-.09.66-.28.26-.46.26-.83v-1.52c0-.55.02-1.01.05-1.39s.1-.71.19-.98.22-.48.39-.62c.17-.14.39-.21.65-.21.2,0,.42.04.68.12.26.08.42.12.48.12.18,0,.34-.07.5-.22.15-.14.23-.33.23-.55,0-.32-.18-.57-.54-.76Z"/>
      <path class="cls-7" d="M376.63,174.91c-.24,0-.46.08-.64.25-.18.17-.28.38-.28.64,0,.28.09.5.27.66.18.16.4.23.65.23s.46-.08.63-.24.27-.38.27-.66-.09-.51-.27-.66c-.18-.15-.39-.23-.63-.23Z"/>
      <path class="cls-14" d="M376.61,177.54c-.27,0-.48.09-.65.27-.17.18-.25.45-.25.81v5.2c0,.36.08.63.25.82.17.19.38.29.65.29s.49-.09.66-.28c.17-.19.26-.46.26-.83v-5.26c0-.32-.09-.58-.26-.76-.17-.18-.39-.27-.66-.27Z"/>
      <path class="cls-11" d="M385.59,181.48c.26-.14.39-.43.39-.89,0-.49-.13-.98-.38-1.45-.25-.48-.63-.86-1.14-1.16-.51-.3-1.12-.45-1.83-.45-.55,0-1.04.09-1.49.26-.45.18-.83.43-1.13.76-.31.33-.54.72-.7,1.18-.16.46-.24.96-.24,1.5,0,1.14.32,2.05.97,2.71.65.67,1.56,1,2.73,1,.51,0,.96-.07,1.36-.2.39-.13.72-.3.98-.5s.45-.41.58-.63.19-.41.19-.58c0-.19-.06-.33-.17-.43-.12-.1-.27-.15-.45-.15-.17,0-.31.04-.4.12-.23.21-.41.38-.55.51-.14.12-.3.24-.47.35-.17.11-.34.19-.52.24-.18.05-.38.08-.6.08-.32,0-.62-.08-.89-.24-.27-.16-.48-.4-.65-.71-.16-.32-.25-.68-.25-1.09h3.56c.48,0,.84-.07,1.11-.2ZM380.93,180.65c.06-.61.24-1.08.53-1.39.29-.31.66-.47,1.12-.47.48,0,.86.15,1.15.46.29.31.46.77.5,1.4h-3.3Z"/>
      <path class="cls-3" d="M393.66,178.74c-.19-.38-.47-.68-.85-.89-.38-.21-.81-.31-1.29-.31s-.93.1-1.31.3c-.38.2-.73.51-1.05.93v-.22c0-.22-.04-.4-.12-.55-.08-.15-.18-.26-.31-.34s-.27-.11-.43-.11c-.26,0-.47.09-.62.26-.15.17-.23.43-.23.78v5.26c0,.36.08.63.25.82.17.19.38.29.65.29s.49-.09.66-.28c.17-.18.26-.46.26-.83v-2.28c0-.74.04-1.25.13-1.52.12-.34.32-.6.59-.8s.56-.29.89-.29c.5,0,.83.16,1,.48s.25.78.25,1.38v3.03c0,.36.08.63.25.82.17.19.39.29.66.29s.48-.09.65-.28c.17-.19.25-.46.25-.83v-3.39c0-.4-.02-.73-.05-.99-.04-.26-.11-.5-.23-.72Z"/>
      <path class="cls-28" d="M401.51,181.89c-.19,0-.34.06-.47.17-.13.12-.25.28-.36.48-.2.35-.43.6-.69.77-.26.17-.57.25-.94.25-.27,0-.52-.05-.75-.16-.23-.1-.42-.26-.58-.46s-.28-.45-.37-.73c-.08-.29-.13-.6-.13-.94,0-.73.16-1.3.49-1.72.33-.42.76-.63,1.3-.63.37,0,.68.08.92.25s.47.42.7.76c.12.17.24.3.34.38.1.08.23.12.38.12.23,0,.43-.08.59-.23.16-.15.24-.34.24-.55s-.07-.44-.22-.69c-.14-.25-.35-.48-.63-.7-.27-.22-.61-.4-1-.53-.39-.14-.83-.21-1.3-.21-.76,0-1.41.16-1.96.47s-.96.76-1.25,1.33-.43,1.23-.43,1.98c0,1.1.32,1.98.95,2.64.63.66,1.51.98,2.63.98.53,0,1-.07,1.43-.21.42-.14.77-.33,1.05-.56s.48-.48.62-.74c.14-.26.2-.5.2-.73,0-.19-.07-.37-.22-.54s-.33-.25-.55-.25Z"/>
      <path class="cls-17" d="M410.05,181.48c.26-.14.39-.43.39-.89,0-.49-.13-.98-.38-1.45-.25-.48-.63-.86-1.14-1.16-.51-.3-1.12-.45-1.83-.45-.55,0-1.04.09-1.49.26s-.83.43-1.13.76c-.31.33-.54.72-.7,1.18s-.24.96-.24,1.5c0,1.14.32,2.05.97,2.71s1.56,1,2.73,1c.51,0,.96-.07,1.36-.2.39-.13.72-.3.98-.5s.45-.41.58-.63c.13-.22.19-.41.19-.58,0-.19-.06-.33-.17-.43-.12-.1-.27-.15-.45-.15-.17,0-.31.04-.4.12-.23.21-.41.38-.55.51-.14.12-.3.24-.47.35-.17.11-.34.19-.52.24-.18.05-.38.08-.6.08-.32,0-.62-.08-.89-.24-.27-.16-.48-.4-.65-.71-.16-.32-.25-.68-.25-1.09h3.56c.48,0,.84-.07,1.11-.2ZM405.39,180.65c.06-.61.24-1.08.53-1.39.29-.31.66-.47,1.12-.47.48,0,.86.15,1.15.46.29.31.46.77.5,1.4h-3.3Z"/>
      <path class="cls-44" d="M39.39,110.13c-1.68-1.9-3.6-3.71-5.79-5.36-2.17-1.65-4.41-3.25-6.71-4.82-2.3-1.6-4.52-3.17-6.71-4.74-2.17-1.54-4.11-3.25-5.79-5.09-1.68-1.81-3.06-3.82-4.09-5.93-1.06-2.11-1.57-4.49-1.57-7.09,0-1.98.38-3.65,1.14-4.98.73-1.33,1.65-2.41,2.68-3.22,1.06-.81,2.17-1.41,3.33-1.76,1.16-.32,2.14-.51,2.95-.51,2.52,0,4.87.35,7.12,1.06,2.22.7,4.22,1.65,5.93,2.92,1.71,1.25,3.09,2.76,4.09,4.58,1.03,1.79,1.54,3.82,1.54,6.09h.79c-.3-2.84-.08-6.06.65-9.66.73-3.63,2-7.04,3.87-10.29-.35.16-.79.3-1.3.43-.46.11-1.03.19-1.71.24-.68.05-1.43.08-2.3.08-1.6,0-2.98-.11-4.25-.38-1.25-.27-2.84-.38-4.82-.38-2.46,0-5.22.38-8.28,1.14-3.09.73-5.96,2.03-8.64,3.82-2.68,1.81-4.93,4.22-6.77,7.28s-2.73,6.88-2.73,11.48c0,3.06.51,5.82,1.57,8.28,1.03,2.44,2.44,4.63,4.17,6.63,1.76,1.95,3.71,3.76,5.9,5.39,2.17,1.62,4.44,3.19,6.74,4.71,2.33,1.52,4.58,3.03,6.77,4.55,2.17,1.49,4.14,3.11,5.87,4.82,1.76,1.73,3.14,3.63,4.2,5.68s1.57,4.36,1.57,6.93-.38,4.58-1.14,6.09c-.76,1.52-1.73,2.68-2.92,3.47-1.19.79-2.52,1.3-3.95,1.57-1.46.24-2.9.38-4.28.38-2.73,0-5.47-.54-8.2-1.6-2.73-1.08-5.2-2.49-7.36-4.25-2.19-1.73-3.95-3.68-5.28-5.79-1.33-2.11-2-4.22-2-6.33h-1.41c1.11,4.36,1.62,8.01,1.54,10.96-.08,2.92-.43,5.31-1.03,7.09-.62,2.11-1.54,3.76-2.76,4.98.46-.19.97-.35,1.57-.51.46-.14.95-.27,1.46-.41.54-.14,1.03-.22,1.49-.22.87,0,1.76.05,2.65.14.92.08,1.92.19,3,.3,1.11.11,2.36.22,3.71.3,1.38.08,2.92.14,4.68.14,1.38,0,3-.14,4.87-.38,1.87-.27,3.79-.76,5.77-1.46,1.98-.68,3.9-1.62,5.79-2.79,1.89-1.16,3.57-2.63,5.06-4.44,1.46-1.79,2.68-3.95,3.6-6.44.95-2.49,1.41-5.41,1.41-8.72,0-2.84-.51-5.41-1.57-7.69-1.06-2.25-2.41-4.36-4.11-6.28Z"/>
      <path class="cls-39" d="M87.2,135.52c1.27,2.73,2.27,5.25,3.03,7.53.76,2.3,1.3,4.09,1.57,5.36,1.41-1.49,3.06-2.95,4.93-4.36,1.9-1.38,3.71-2.57,5.47-3.57-.65-.11-1.43-1-2.36-2.71-.95-1.68-1.9-3.63-2.84-5.82-.95-2.22-1.87-4.39-2.73-6.55-.89-2.14-1.54-3.79-2.03-4.87-.51-1-1.14-2.36-1.87-4.11-.73-1.73-1.6-3.47-2.6-5.17-1.03-1.73-2.17-3.19-3.41-4.47-1.25-1.25-2.6-1.87-4.06-1.87-.76,0-1.68.16-2.73.51-1.08.35-2.25.81-3.49,1.41-1.25.57-2.54,1.22-3.9,1.92-1.33.7-2.63,1.41-3.9,2.17-3.03,1.81-6.17,3.82-9.42,6.04,1.52-.84,3-1.54,4.52-2.19,1.22-.57,2.49-1.11,3.79-1.57,1.33-.46,2.38-.7,3.19-.7,1.92,0,3.68.51,5.28,1.54,1.6,1,3.28,2.65,5.09,4.93-2.44,1.49-5.12,3.14-8.01,4.87-2.9,1.73-5.6,3.52-8.12,5.36-2.49,1.84-4.57,3.68-6.28,5.55-1.68,1.84-2.52,3.6-2.52,5.22,0,1.33.35,2.54,1.08,3.57.73,1.06,1.68,1.92,2.84,2.65,1.16.73,2.46,1.3,3.87,1.68,1.43.35,2.82.54,4.14.54,1.87,0,3.84-.46,5.9-1.38,2.06-.92,4.03-2.06,5.96-3.41,1.92-1.33,3.74-2.73,5.41-4.22,1.68-1.49,3.09-2.79,4.2-3.87ZM79.16,139.33c-1.27.43-2.6.62-4.01.62-1.57,0-3.06-.16-4.44-.51-1.41-.35-2.6-.81-3.63-1.35-1-.57-1.84-1.19-2.44-1.92-.62-.73-.92-1.49-.92-2.33,0-1.43.6-2.84,1.79-4.17,1.19-1.35,2.63-2.57,4.33-3.71,1.68-1.14,3.44-2.11,5.28-2.98,1.81-.84,3.36-1.49,4.66-1.95.51.65,1.03,1.43,1.52,2.38.49.97.97,1.98,1.46,3.03.46.81.95,1.68,1.46,2.57s1.03,1.73,1.49,2.46c0,1.25-.3,2.36-.87,3.41-.6,1.06-1.35,1.95-2.33,2.71-.95.76-2.06,1.33-3.36,1.73Z"/>
      <path class="cls-25" d="M110.83,111.7c.76.35,1.33,1.35,1.79,3.01.43,1.68.73,3.68.89,6.04.19,2.36.27,4.93.32,7.72.03,2.79-.03,5.47-.14,8.07-.11,2.57-.27,4.95-.43,7.09-.19,2.17-.35,3.76-.54,4.79,1.57-.97,3.38-1.92,5.47-2.79,2.06-.87,4.06-1.3,6.06-1.3-.65-3.9-1.06-7.55-1.22-10.99-.19-3.44-.27-6.47-.24-9.15.03-2.68.11-4.9.24-6.71.11-1.81.16-3.03.16-3.65.87-.81,1.79-1.38,2.79-1.68.97-.27,2.25-.43,3.74-.43,2.52,0,4.9.57,7.2,1.65,2.3,1.11,4.33,2.63,6.12,4.49,1.76,1.9,3.17,4.09,4.22,6.58,1.06,2.52,1.57,5.17,1.57,7.96,0,1.18-.03,2.29-.08,3.37h0s-.62,6.41-5.58,11.02c0,0-11.1,9.08-10.02,19.38,0,0-1.17,15.31,9.85,15.55,0,0,4.21.5,12.03-8.68-2.77,3.14-10.68,11.08-16.44,6.61-.38-.29-.71-.64-1.01-1.01-1.7-2.06-6.33-8.88-.96-16.84.07-.1.14-.19.22-.28.81-.91,5.56-6.25,7.26-7.54,0,0,11.34-9.17,12.63-27.57.04-.46.09-.93.12-1.39v-.51c0-.11.02-.22.02-.33l-.02.03h0c.03-.3.03-.57.03-.87,0-2.38-.41-4.71-1.25-6.93-.87-2.25-2.06-4.22-3.6-5.93-1.52-1.73-3.38-3.11-5.52-4.14-2.17-1.06-4.52-1.57-7.15-1.57-2.49,0-5.12.57-7.85,1.73s-5.5,2.76-8.28,4.79c0-1.38-.03-2.52-.08-3.36-.05-.84-.19-1.52-.41-2-.19-.49-.49-.81-.87-.95-.38-.16-.89-.22-1.52-.22-.95,0-2.14.38-3.6,1.14-1.43.76-2.87,1.54-4.25,2.44-1.62,1.06-3.38,2.22-5.25,3.57.3-.14.62-.22.97-.27.76-.11,1.62-.08,2.63.08Z"/>
      <path class="cls-20" d="M198.4,138.96c2.82-2.27,5.06-4.85,6.77-7.66,1.68-2.82,2.52-5.77,2.52-8.85,0-2.73-.6-5.2-1.79-7.36-1.19-2.19-2.71-4.03-4.55-5.55-1.81-1.52-3.84-2.63-6.06-3.36-2.19-.73-4.3-1.03-6.33-.92-.89.6-1.84,1.3-2.84,2.14-1.03.84-2.06,1.76-3.14,2.71-1.08.95-2.17,1.92-3.22,2.87-1.08.97-2.06,1.84-2.92,2.68-.19-1.71-.38-3.11-.62-4.28-.24-1.16-.49-2.06-.79-2.71-.46-1.16-1.03-2.03-1.71-2.63-.65-.57-1.65-.95-3-1.14-1.16,1-2.49,1.92-4.01,2.76-1.52.84-2.92,1.57-4.28,2.22-1.57.7-3.19,1.35-4.87,1.92.81-.11,1.62-.16,2.44-.08.65.05,1.35.16,2.08.32.76.19,1.41.51,1.92.97.46.41.95.92,1.43,1.52.49.62.97,1.54,1.41,2.79.43,1.27.79,2.95,1.08,5.12.3,2.14.43,4.98.43,8.45v61.13c0,4.3.03,8.72.05,13.21.03,4.52.03,8.74,0,12.75-.03,3.98-.16,7.47-.35,10.53-.22,3.06-.51,5.28-.92,6.69-1.16-1.68-3-3.82-5.52-6.36-1.65-1.68-3.6-3.3-5.82-4.9h-.03s-.05-.03-.07-.05c.17.05.29.09.29.09-7.76-7.09-22.91-10.31-22.91-10.31-35.72-7.96-49.57,14.51-50.3,15.75,0,0,0,0-.01.01t-.03.05c-1.38,1.54-2.08,3.44-2.08,5.71,0,1.33.27,2.54.81,3.6.57,1.08,1.16,2.03,1.81,2.84.76,1,1.62,1.87,2.6,2.63-.87-.81-1.62-1.73-2.27-2.71-.57-.81-1.08-1.79-1.52-2.9-.43-1.08-.65-2.25-.65-3.47,0-2.11.81-4.09,2.44-5.93,1.62-1.87,4.09-3.49,7.36-4.85,3.3-1.38,7.39-2.44,12.34-3.22,4.93-.79,10.72-1.19,17.35-1.19,4.11,0,8.23.68,12.34,2,4.09,1.35,8.01,3.14,11.72,5.39,3.71,2.22,7.15,4.76,10.29,7.61,3.14,2.87,5.82,5.77,8.01,8.72,2.06-2.9,3.95-5.82,5.77-8.74,1.81-2.95,3.93-5.68,6.36-8.26.11-2.79.38-7.12.79-12.99.41-5.87.62-13.18.62-21.95v-9.12c0-3.22,0-6.42.03-9.58.03-3.17.05-6.23.05-9.12s.03-5.47.03-7.72c.03-2.25.05-4.06.05-5.44v-2.19c4.01-.76,7.88-1.98,11.59-3.65,3.74-1.68,7.01-3.68,9.83-5.98ZM176.99,146.78c0-5.71.05-11.13.19-16.27.11-5.14,0-9.47-.35-12.97.76-1.08,1.6-2.03,2.52-2.82.92-.79,2.06-1.19,3.41-1.19,1.11,0,2.49.27,4.17.79,1.71.54,3.33,1.33,4.93,2.41,1.6,1.08,2.98,2.44,4.14,4.06,1.16,1.62,1.76,3.55,1.76,5.74,0,2.98-.62,5.63-1.89,7.99-1.25,2.36-2.87,4.39-4.87,6.06-2,1.68-4.25,3.03-6.71,4.09-2.46,1.06-4.9,1.76-7.28,2.11Z"/>
      <path class="cls-16" d="M213.89,111.78c.35,0,.65.05.95.11.6.11,1.08.73,1.49,1.87.41,1.14.73,2.63,1,4.44.27,1.84.43,3.95.51,6.36.11,2.44.11,4.98,0,7.63-.08,2.68-.22,5.41-.43,8.2-.19,2.79-.43,5.5-.73,8.12.7-.41,1.49-.84,2.38-1.27.92-.43,1.84-.87,2.76-1.3.92-.46,1.84-.81,2.73-1.14.92-.32,1.73-.57,2.49-.76,0-1.16-.03-2.65-.11-4.52-.11-1.87-.14-4.49-.14-7.85.16-1.76.43-3.55.81-5.41.38-1.87.92-3.55,1.62-5.09.68-1.54,1.6-2.79,2.73-3.76,1.14-.95,2.57-1.43,4.33-1.43,1.08,0,2.03.08,2.82.27.79.16,1.43.35,1.98.51.62.24,1.16.46,1.57.7.46-1.52.97-3.03,1.57-4.55.46-1.22.97-2.49,1.57-3.82.57-1.35,1.19-2.44,1.81-3.33-.62-.27-1.43-.46-2.44-.51-.97-.05-1.92-.08-2.79-.08-1.52,0-3.03.57-4.52,1.68-1.52,1.14-2.95,2.6-4.28,4.39-1.35,1.76-2.6,3.71-3.76,5.85-1.16,2.11-2.17,4.17-3.03,6.15-.14-1.81-.22-3.65-.27-5.52-.05-1.84-.14-3.6-.27-5.25-.11-1.68-.22-3.14-.35-4.47-.11-1.3-.24-2.33-.43-3.09-1.52,1.11-3.09,2.08-4.71,2.92-1.62.84-3.11,1.57-4.44,2.22-1.57.7-3.14,1.3-4.71,1.84.41-.05.81-.11,1.22-.11h1.06Z"/>
      <path class="cls-36" d="M255.9,146.18c1.16.73,2.46,1.3,3.9,1.68,1.41.35,2.79.54,4.14.54,1.84,0,3.82-.46,5.87-1.38,2.06-.92,4.06-2.06,5.98-3.41,1.92-1.33,3.71-2.73,5.41-4.22,1.68-1.49,3.06-2.79,4.17-3.87,1.27,2.73,2.3,5.25,3.06,7.53.76,2.3,1.27,4.09,1.57,5.36,1.38-1.49,3.03-2.95,4.93-4.36,1.9-1.38,3.71-2.57,5.44-3.57-.65-.11-1.43-1-2.36-2.71-.92-1.68-1.87-3.63-2.84-5.82-.95-2.22-1.87-4.39-2.73-6.55-.87-2.14-1.54-3.79-2-4.87-.51-1-1.14-2.36-1.87-4.11-.73-1.73-1.62-3.47-2.63-5.17-1-1.73-2.14-3.19-3.41-4.47s-2.6-1.87-4.03-1.87c-.76,0-1.68.16-2.76.51-1.08.35-2.25.81-3.49,1.41-1.25.57-2.54,1.22-3.87,1.92-1.35.7-2.65,1.41-3.93,2.17-3.03,1.81-6.17,3.82-9.42,6.04,1.52-.84,3.03-1.54,4.55-2.19,1.22-.57,2.46-1.11,3.79-1.57,1.3-.46,2.36-.7,3.17-.7,1.92,0,3.68.51,5.28,1.54,1.6,1,3.3,2.65,5.09,4.93-2.41,1.49-5.09,3.14-8.01,4.87-2.9,1.73-5.6,3.52-8.09,5.36-2.52,1.84-4.6,3.68-6.28,5.55-1.68,1.84-2.54,3.6-2.54,5.22,0,1.33.38,2.54,1.11,3.57.7,1.06,1.65,1.92,2.82,2.65ZM263.73,129.67c1.19-1.35,2.63-2.57,4.3-3.71s3.44-2.11,5.28-2.98c1.84-.84,3.38-1.49,4.66-1.95.54.65,1.03,1.43,1.54,2.38.49.97.97,1.98,1.43,3.03.46.81.95,1.68,1.46,2.57.54.89,1.03,1.73,1.49,2.46,0,1.25-.27,2.36-.87,3.41-.57,1.06-1.35,1.95-2.3,2.71-.97.76-2.08,1.33-3.36,1.73-1.27.43-2.63.62-4.01.62-1.57,0-3.06-.16-4.47-.51-1.38-.35-2.6-.81-3.6-1.35-1.03-.57-1.84-1.19-2.44-1.92-.62-.73-.95-1.49-.95-2.33,0-1.43.62-2.84,1.81-4.17Z"/>
      <path class="cls-12" d="M291.53,89.39c3.06,5.52,6.42,11.1,10.12,16.7,3.68,5.6,7.23,10.99,10.64,16.16,3.38,5.17,6.44,9.96,9.15,14.37,2.71,4.44,4.57,8.2,5.63,11.34,0-.05.03-.14.08-.24.05-.08.11-.14.16-.19.08-.05.19-.08.35-.08,1-1.33,2.22-3.06,3.68-5.2,1.43-2.11,2.98-4.41,4.6-6.88,1.62-2.46,3.28-5.04,4.9-7.69,1.62-2.63,3.09-5.14,4.39-7.53,1.33-2.38,2.38-4.52,3.25-6.42.84-1.9,1.3-3.33,1.43-4.3-.65-.65-1.43-1.3-2.41-1.92-.95-.65-1.98-1.22-3.09-1.76-1.11-.51-2.27-.95-3.49-1.3-.79-.22-1.52-.38-2.25-.46l.6.19c4.44,2.95,2.84,10.96.68,17.22-.35,1.25-.81,2.52-1.38,3.9-.87,2.08-1.92,4.17-3.14,6.28-1.22,2.08-2.52,3.95-3.93,5.58-2.44-3.25-4.6-6.58-6.5-9.99-1.84-3.3-3.74-6.52-5.71-9.64-.03-.05-.11-.14-.16-.27-.22-.32-.51-.89-.68-1.16-.03-.03-.03-.05-.05-.08-3.6-5.85-7.2-11.61-10.83-17.35-3.68-5.85-7.01-11.56-9.99-17.19-2.98-5.6-5.39-11.05-7.23-16.35-1.87-5.28-2.79-10.34-2.79-15.16,0-2.98.14-6.25.38-9.83.27-3.57.84-7.15,1.73-10.75.92-3.6,2.19-7.09,3.84-10.48,1.65-3.36,3.9-6.36,6.69-8.99,2.79-2.6,6.23-4.71,10.29-6.28,4.06-1.54,8.93-2.36,14.65-2.36,3.25,0,6.12.38,8.58,1.11,2.46.73,4.63,1.68,6.47,2.87,1.81,1.19,3.36,2.54,4.57,4.06,1.22,1.52,2.22,3.03,3.03,4.6,1.87,3.74,2.9,7.96,3.06,12.67-.11-4.9-1.08-9.26-2.87-13.1-.81-1.62-1.84-3.22-3.06-4.79-1.22-1.57-2.73-2.98-4.58-4.22-1.84-1.25-4.01-2.25-6.5-3-2.49-.76-5.41-1.14-8.72-1.14-5.82,0-10.94.84-15.35,2.52-4.41,1.71-8.26,3.98-11.51,6.85-3.28,2.9-5.98,6.25-8.2,10.07-2.22,3.84-3.98,7.96-5.31,12.34-1.35,4.39-2.3,8.91-2.9,13.56-.57,4.66-.87,9.2-.87,13.7,0,4.17,1,8.85,2.95,14,2,5.14,4.49,10.48,7.55,16Z"/>
      <path class="cls-22" d="M362.81,146.18c1.16.73,2.46,1.3,3.9,1.68,1.41.35,2.79.54,4.14.54,1.84,0,3.82-.46,5.87-1.38,2.06-.92,4.06-2.06,5.98-3.41,1.92-1.33,3.71-2.73,5.39-4.22,1.71-1.49,3.09-2.79,4.2-3.87,1.27,2.73,2.3,5.25,3.06,7.53.76,2.3,1.27,4.09,1.57,5.36,1.38-1.49,3.03-2.95,4.93-4.36,1.9-1.38,3.71-2.57,5.44-3.57-.65-.11-1.41-1-2.36-2.71-.92-1.68-1.87-3.63-2.82-5.82-.97-2.22-1.89-4.39-2.76-6.55-.87-2.14-1.54-3.79-2-4.87-.54-1-1.14-2.36-1.87-4.11-.73-1.73-1.6-3.47-2.63-5.17-1.03-1.73-2.17-3.19-3.41-4.47-1.25-1.25-2.6-1.87-4.03-1.87-.76,0-1.68.16-2.76.51-1.08.35-2.25.81-3.49,1.41-1.25.57-2.54,1.22-3.87,1.92-1.33.7-2.65,1.41-3.93,2.17-3.03,1.81-6.17,3.82-9.42,6.04,1.52-.84,3.03-1.54,4.55-2.19,1.22-.57,2.49-1.11,3.79-1.57,1.3-.46,2.36-.7,3.17-.7,1.92,0,3.68.51,5.28,1.54,1.6,1,3.3,2.65,5.12,4.93-2.46,1.49-5.12,3.14-8.04,4.87-2.9,1.73-5.6,3.52-8.09,5.36-2.52,1.84-4.6,3.68-6.28,5.55-1.71,1.84-2.54,3.6-2.54,5.22,0,1.33.38,2.54,1.11,3.57.73,1.06,1.65,1.92,2.82,2.65ZM370.63,129.67c1.19-1.35,2.63-2.57,4.3-3.71s3.44-2.11,5.28-2.98c1.84-.84,3.38-1.49,4.66-1.95.54.65,1.03,1.43,1.54,2.38.49.97.97,1.98,1.43,3.03.46.81.95,1.68,1.49,2.57.51.89,1,1.73,1.46,2.46,0,1.25-.27,2.36-.87,3.41-.57,1.06-1.35,1.95-2.3,2.71-.97.76-2.08,1.33-3.36,1.73-1.3.43-2.63.62-4.01.62-1.57,0-3.06-.16-4.47-.51-1.38-.35-2.6-.81-3.6-1.35-1.03-.57-1.84-1.19-2.46-1.92-.6-.73-.89-1.49-.89-2.33,0-1.43.6-2.84,1.79-4.17Z"/>
      <path class="cls-13" d="M459.26,45.21c-2.84,3.87-6.09,7.36-9.69,10.53-3.38,2.92-6.08,5.39-9.57,7.72l-.74.51c3.74-2.44,7.44-5.17,11.02-8.23,3.65-3.17,6.93-6.66,9.83-10.53,2.87-3.84,5.17-8.09,6.9-12.72,1.76-4.63,2.63-9.66,2.63-15.13,0-2.22-.3-4.36-.92-6.44-.6-2.08-1.6-3.95-2.95-5.55-1.38-1.6-3.17-2.9-5.41-3.87-2.25-.97-5.01-1.49-8.31-1.49-2.22,0-4.41.43-6.55,1.3-2.17.89-4.28,1.98-6.42,3.28-2.11,1.33-4.22,2.73-6.31,4.25-2.11,1.49-4.14,2.9-6.12,4.22-1.98,1.3-3.9,2.38-5.79,3.25-1.9.89-3.71,1.33-5.44,1.33.46,3.41.81,6.79,1.03,10.1.24,3.33.41,6.71.54,10.21.11,3.49.19,7.12.22,10.86.03,3.76.03,7.77.03,12.07,0,2.22.03,5.04.05,8.42,0,1.8.03,3.71.05,5.7v.54s0,0,0,0c.02,1.63.05,3.31.07,5.05.05,4.14.11,8.5.14,13.13.03,4.63.05,9.23.08,13.86.03,4.63.05,9.12.08,13.54.03,4.39.03,8.39,0,12.07-.03,3.65-.08,6.82-.16,9.5-.11,2.68-.19,4.63-.32,5.85,1-.89,2.22-1.79,3.71-2.76,1.49-.95,2.87-1.81,4.14-2.57,0-4.17.19-8.07.57-11.69.38-3.6,1-6.71,1.9-9.39.87-2.68,2.06-4.79,3.55-6.33,1.52-1.54,3.41-2.3,5.69-2.3,1.11,0,2.3.35,3.63,1.08,1.3.73,2.49,1.79,3.6,3.17,1.11,1.41,2.03,3.14,2.76,5.17.73,2.03,1.08,4.3,1.08,6.88,0,2.73-.27,5.36-.84,7.85-.54,2.49-1.27,4.9-2.17,7.15-.92,2.27-1.92,4.39-3.06,6.36-1.14,1.98-2.03,3.44-3.76,5.33-3.25,3.57-14.9,16.38-19.59,20.76,3.17-2.87,11.87-11.29,12.79-12.1,1.03-.89,2.14-1.92,3.33-3.06,1.19-1.11,2.41-2.36,3.65-3.74,1.25-1.35,2.49-2.84,3.71-4.41,1.16-1.49,2.57-3.44,4.22-5.74,1.65-2.33,3.25-4.98,4.79-7.93,1.54-2.98,2.87-6.17,3.98-9.64,1.11-3.47,1.65-7.09,1.65-10.86,0-2.63-.38-4.87-1.19-6.77-.76-1.9-1.73-3.44-2.87-4.66-1.14-1.22-2.33-2.14-3.6-2.71-1.3-.6-2.46-.87-3.49-.87s-2.14.22-3.25.68c-1.08.49-2.22,1.08-3.33,1.84-1.14.76-2.25,1.62-3.33,2.57-1.08.95-2.08,1.92-3,2.92-2.27,2.33-4.47,4.95-6.63,7.93v-33.22c0-3.38.03-6.66.05-9.85.03-1.9.03-3.71.03-5.5v-.89c.03-.92.03-1.84.03-2.73v-7.63c0-2.36,0-4.68.03-7.01-.03-1.92,0-3.87,0-5.79.03-4.25.14-8.23.3-11.99.19-3.76.43-7.15.79-10.21.35-3.06.89-5.52,1.57-7.44.41-1.22,1.3-2.84,2.68-4.79,1.35-1.98,3.06-3.9,5.09-5.77,2.03-1.87,4.39-3.47,7.01-4.85,2.65-1.35,5.52-2.03,8.61-2.03,3.3,0,6.01.43,8.15,1.35,2.11.89,3.82,2.08,5.09,3.6,1.27,1.52,2.17,3.28,2.68,5.22.49,2,.73,4.06.73,6.2,0,5.47-.87,10.5-2.57,15.13-1.73,4.63-4.01,8.88-6.85,12.72Z"/>
      <path class="cls-10" d="M481.7,137.03c-1.25-1.35-2.11-3.06-2.6-5.09-.51-2.06-.73-4.3-.65-6.82.05-2.49.16-4.98.38-7.44.19-2.46.32-4.82.38-7.07.08-2.25-.14-4.14-.6-5.71-1.06.92-2.11,1.71-3.19,2.3-1.06.62-2.17,1.16-3.3,1.68-1.14.49-2.33.95-3.57,1.38-1.25.43-2.57.95-3.98,1.52,1.76-.05,3.01.7,3.82,2.25.76,1.52,1.27,3.65,1.52,6.36.24,2.71.3,5.85.16,9.42-.11,3.57-.19,7.34-.27,11.29.08,1.33.33,2.44.76,3.28.43.84.95,1.54,1.52,2.08.6.54,1.19.97,1.84,1.27.65.27,1.22.54,1.73.79,1.76-1.52,3.52-3.01,5.28-4.47,1.79-1.43,3.93-2.98,6.42-4.6-2.49-.24-4.36-1.03-5.63-2.41Z"/>
      <path class="cls-40" d="M470.47,103.49c3.79,0,6.85-3.06,6.85-6.85s-3.06-6.85-6.85-6.85-6.85,3.06-6.85,6.85,3.06,6.85,6.85,6.85Z"/>
      <path class="cls-4" d="M155.02,173.02c.64-.73,1.01-1.2,1.01-1.2-.35.43-.67.81-1.01,1.2Z"/>
      <path class="cls-6" d="M194.21,164.04c-8.66.04-8.66,1.59,0,1.64,63.47,1.02,131.78,2.39,160.42.84v-3.31c-29.77-1.54-97.59-.16-160.41.83Z"/>
      <path class="cls-18" d="M380.74,165.47v-1.47l-24-.8c-.69,1.03-.7,2.05,0,3.07l24-.8Z"/>
      <path class="cls-38" d="M410.28,164.22c0-.14-7.47-2.86-15.26-2.57-7.79.29-13.03,2.03-13.03,2.03v2.37s10.01,2.89,17.32,1.32c7.31-1.57,10.97-3,10.97-3.15Z"/>
    </g>
  </g>
</svg>